<svg width="22" height="22" viewBox="0 0 22 22" fill="none" xmlns="http://www.w3.org/2000/svg">
<path fill-rule="evenodd" clip-rule="evenodd" d="M10.9724 0L4.60519 6.42812L6.37676 8.19969L12.753 1.82349L10.9724 0ZM15.5766 3.32735L18.6068 6.43063L6.37623 18.6612L6.37619 18.6612L18.6068 6.43063L15.5765 3.32738L15.5766 3.32735ZM3.346 15.6309L4.86359 17.1486L3.34596 15.631L3.346 15.6309ZM15.5708 4.59852L4.60571 15.6291L6.37616 17.3995L17.3525 6.42317L15.5708 4.59852ZM0 11.0244L1.77604 9.2056L3.55208 11.0244L1.77604 12.8005L0 11.0244ZM20.1772 7.92777L20.178 7.92859L20.1772 7.92781L20.1772 7.92777ZM7.94663 20.2314L7.94695 20.2317L7.9466 20.2314L7.94663 20.2314ZM20.1715 9.19895L9.20635 20.2295L10.9768 22L21.9532 11.0236L20.1715 9.19895Z" fill="white"/>
</svg>
