<svg width="770" height="75" viewBox="0 0 770 75" fill="none" xmlns="http://www.w3.org/2000/svg">
<path fill-rule="evenodd" clip-rule="evenodd" d="M51.6813 0H125.668L118.345 15.8874H26.9349L34.2999 0H51.6813ZM0 74.2397L13.762 44.4507L21.0849 28.5632H112.495L105.172 44.4507H31.1855L17.4235 74.1974L0 74.2397ZM658.094 44.4507L651.781 58.1409H651.655L644.332 73.9861H644.458L644.332 74.2397L661.755 74.1974L661.882 73.9861H735.742L743.023 58.1409H669.163L675.517 44.4507H749.504L756.827 28.5632H665.417L658.094 44.4507ZM678.59 0H696.013H770L762.677 15.8874H671.267L678.59 0ZM226.042 15.8874C228.651 10.3099 226.21 3.63383 220.655 1.05635C219.182 0.380285 217.583 0 215.942 0H159.421C148.815 0 139.135 6.21132 134.674 15.8874L120.912 45.7187H120.954L115.231 58.1413C112.663 63.7611 115.104 70.3949 120.702 72.9724C122.175 73.6485 123.732 73.9865 125.331 73.9865H181.894C192.5 73.9865 202.18 67.7752 206.641 58.099L226.042 15.8874ZM189.133 58.1413L208.557 15.9297H152.098L146.374 28.3523L132.612 58.1413H189.133ZM429.779 74.4922L429.676 74.6989C429.704 74.6331 429.737 74.5627 429.779 74.4922ZM429.676 74.6989C429.664 74.7255 429.654 74.7513 429.644 74.7761L429.643 74.7783L429.643 74.7786C429.603 74.875 429.57 74.9548 429.526 74.9993L429.676 74.6989ZM429.863 74.3348C429.92 74.2316 429.976 74.1283 430.032 73.9874L429.779 74.4936C429.796 74.4604 429.813 74.4289 429.829 74.398C429.84 74.3773 429.851 74.3568 429.863 74.3364L429.863 74.3348ZM538.149 0H481.586C470.981 0 461.301 6.21132 456.84 15.8875H530.784L524.724 29.0707H450.78L443.12 45.7187H443.162L437.396 58.1413L436.681 59.747C436.497 60.1576 436.313 60.5483 436.134 60.9287L436.133 60.9294C435.944 61.3316 435.76 61.7224 435.587 62.1132L434.24 64.9864L434.156 65.1555C433.997 65.5375 433.815 65.8956 433.645 66.2297L433.644 66.2315L433.643 66.2329L433.559 66.3984L433.508 66.4996L433.482 66.5498L433.104 67.3949C432.928 67.7738 432.759 68.1376 432.598 68.4852L432.592 68.4981L432.591 68.4994C432.216 69.3088 431.882 70.03 431.589 70.6485L430.999 71.9583L430.831 72.2964L430.536 72.9724C430.471 73.1209 430.405 73.2565 430.344 73.3817L430.344 73.3827C430.249 73.5778 430.167 73.7477 430.116 73.902L430.074 73.9443H447.497L454.82 58.0568L460.922 44.8736H517.485L504.102 73.9443H521.273L548.25 15.8029H548.292C550.859 10.1832 548.418 3.54933 542.821 0.97184C541.348 0.380286 539.749 0 538.149 0ZM583.139 44.4503L590.462 28.5628L649.634 28.5206L636.04 58.0983C631.579 67.7744 621.9 73.9857 611.294 73.9857H554.773C553.174 73.9857 551.617 73.6477 550.144 72.9716C544.546 70.3942 542.105 63.7603 544.672 58.1405L550.438 45.7179H550.396L564.158 15.929C568.619 6.25282 578.299 0.0415039 588.904 0.0415039H663.017C659.314 7.92158 658.293 10.0133 657.783 11.0591C657.669 11.2924 657.581 11.4737 657.493 11.6556C657.191 12.2862 656.904 12.9242 655.627 15.765L655.617 15.7864L655.61 15.8022L597.153 15.929H588.399C584.233 15.929 580.487 18.3374 578.762 22.098L564.495 52.9856C564.284 53.4504 564.158 53.9574 564.158 54.5067C564.158 56.4926 565.757 58.1405 567.777 58.1405H611.841C615.965 58.1405 619.711 55.7321 621.437 51.9715L624.888 44.4503H583.139ZM420.098 29.0707H360.547L366.649 15.8875H440.594C444.318 7.94373 444.308 7.94373 444.303 7.94373L444.302 7.94369C444.298 7.94162 444.358 7.81438 448.043 0H373.972C363.367 0 353.687 6.21132 349.226 15.8875L342.661 30.0847H342.829L341.945 32.0284C339.841 36.5918 341.819 41.9581 346.322 44.0708C347.5 44.6201 348.805 44.9158 350.11 44.9158H409.745L403.685 58.0991H329.74L329.74 58.1C328.036 61.7961 328.036 61.7964 327.51 62.8524C326.984 63.9087 325.932 66.0212 322.123 73.9443H396.362C406.967 73.9443 416.647 67.7329 421.108 58.0568L427.168 44.8736H427.337L428.515 42.3384C430.662 37.6059 428.599 32.0284 423.886 29.8735C422.665 29.3242 421.361 29.0284 420.056 29.0284L420.098 29.0707ZM249.063 0H323.26C324.859 0.0422539 326.458 0.380284 327.889 1.0986C333.486 3.67609 335.885 10.3099 333.318 15.9297H333.276L327.005 29.1129L326.29 30.7186C322.418 39.3806 313.832 44.9581 304.363 44.9581H296.367L306.846 74.2823H289.591L278.943 44.9581H245.99L232.565 74.0288H215.142L228.188 45.7187L235.806 29.0707H309.834L315.895 15.8875H241.824L249.063 0Z" fill="url(#paint0_linear)"/>
<defs>
<linearGradient id="paint0_linear" x1="0.0762683" y1="37.1405" x2="769.326" y2="37.1405" gradientUnits="userSpaceOnUse">
<stop stop-color="#FFB23E"/>
<stop offset="0.503886" stop-color="#FF518F"/>
<stop offset="1" stop-color="#622AFF"/>
</linearGradient>
</defs>
</svg>
