<svg width="54" height="36" viewBox="0 0 54 36" fill="none" xmlns="http://www.w3.org/2000/svg">
<path fill-rule="evenodd" clip-rule="evenodd" d="M45.2164 7.02173C45.5195 6.91688 45.8489 7.07437 45.9538 7.37617L46.471 8.87246C46.471 8.87246 44.2478 8.16401 43.0888 7.94073L45.2164 7.02173ZM52.482 11.0246C52.4767 11.0246 52.2482 10.8671 52.1262 10.8013L48.3923 8.89834C47.2347 8.34694 47.4895 7.91397 47.0513 6.70676C46.9017 6.30012 46.6863 5.82768 46.3924 5.3548C44.261 4.34411 38.203 4.58055 37.6244 0C37.6244 0 35.3644 1.48313 34.9525 4.19979C11.0715 2.37581 0 15.5525 0 15.5525C4.44763 13.7807 9.24576 12.9406 14.0452 12.7178C4.92139 19.7391 2.04857 30.3171 2.04857 30.3171C2.04857 30.3171 9.44009 23.1383 20.5511 19.1355C17.6427 23.2436 15.9574 28.7554 16.6465 36C16.6465 36 22.3619 14.1878 49.4802 19.4636C49.4802 19.4636 50.4725 16.5631 53.0343 13.5969C53.1957 13.4131 53.2874 13.1376 53.3058 12.8226C53.3589 12.1138 53.0294 11.4448 52.482 11.0246Z" fill="#333333"/>
</svg>
