<svg width="194" height="36" viewBox="0 0 194 36" fill="none" xmlns="http://www.w3.org/2000/svg">
<g clip-path="url(#clip0)">
<path fill-rule="evenodd" clip-rule="evenodd" d="M55.0757 26.2867H58.2079L60.6818 20.9587H73.9765L75.2928 18.1112H58.8707L55.0757 26.2867Z" fill="#3A3B3C"/>
<path fill-rule="evenodd" clip-rule="evenodd" d="M77.6653 13.0065H61.2384L59.9234 15.8409H76.349L77.6653 13.0065Z" fill="#3A3B3C"/>
<path fill-rule="evenodd" clip-rule="evenodd" d="M170.873 26.2472V26.2867L187.299 26.2472L188.615 23.4128H175.342L176.479 20.9587H189.773L191.088 18.1112H174.666L170.873 26.2472Z" fill="#3A3B3C"/>
<path fill-rule="evenodd" clip-rule="evenodd" d="M177.035 13.0065L175.719 15.8409H192.146L193.461 13.0065H177.035Z" fill="#3A3B3C"/>
<path fill-rule="evenodd" clip-rule="evenodd" d="M92.5648 15.8409L89.0742 23.4128L78.9065 23.3997L82.4155 15.8409H92.5648ZM95.7053 15.8409C96.3194 14.5154 95.3509 13.0065 93.8903 13.0065H83.7226C81.8146 13.0065 80.0825 14.1088 79.2793 15.8409L76.8002 21.182H76.8095L75.7796 23.4128H75.7743C75.1655 24.7384 76.13 26.2472 77.5906 26.2472H87.7584C89.6664 26.2472 91.3985 25.145 92.2016 23.4128L95.6975 15.8409H95.7053Z" fill="#3A3B3C"/>
<path fill-rule="evenodd" clip-rule="evenodd" d="M151.788 13.0065H141.62C139.712 13.0065 137.98 14.1088 137.177 15.8409H150.463L149.376 18.2029H136.082L134.7 21.182L133.674 23.4128C133.674 23.4128 132.384 26.195 132.366 26.2341L132.358 26.2472H135.49L136.805 23.4128L137.902 21.0509H148.064L145.66 26.2472H148.744L153.596 15.8409H153.605C154.217 14.5154 153.249 13.0065 151.788 13.0065Z" fill="#3A3B3C"/>
<path fill-rule="evenodd" clip-rule="evenodd" d="M161.196 18.1112L159.881 20.9587H167.386L166.762 22.2974C166.451 22.9799 165.775 23.4128 165.03 23.4128L157.108 23.3997C156.631 23.3997 156.314 22.9141 156.516 22.4812L159.082 16.9436C159.394 16.2742 160.069 15.8413 160.81 15.8413L172.89 15.8282C173.486 14.5026 172.89 15.8282 174.219 13.0069H160.903C158.995 13.0069 157.258 14.1092 156.455 15.8413L153.981 21.1824H153.985L152.955 23.4133C152.341 24.7388 153.311 26.2476 154.771 26.2476H164.934C166.842 26.2476 168.579 25.1454 169.381 23.4133L171.825 18.1116H161.196V18.1112Z" fill="#3A3B3C"/>
<path fill-rule="evenodd" clip-rule="evenodd" d="M130.572 18.2029H119.878L120.975 15.8409H134.265C135.603 13.0065 134.256 15.8409 135.603 13.0065H122.287C120.374 13.0065 118.641 14.1088 117.84 15.8409L116.527 18.7411C116.027 19.817 116.817 21.0509 118.001 21.0509H128.725L127.633 23.4128H114.339H114.335C113.725 24.7384 114.335 23.4128 112.974 26.2472H126.317C128.225 26.2472 129.959 25.145 130.761 23.4128C130.761 23.4128 132.169 20.4078 132.195 20.3026C132.471 19.2793 131.694 18.2029 130.572 18.2029Z" fill="#3A3B3C"/>
<path fill-rule="evenodd" clip-rule="evenodd" d="M113.172 13.0065H99.8324L98.5305 15.8409H111.842L110.755 18.2029H97.4467L96.0835 21.182L93.7412 26.2472H96.8739L99.2806 21.0509H105.207L107.124 26.2867H110.221L108.343 21.0509H109.778C111.48 21.0509 113.023 20.0403 113.716 18.4919L114.976 15.8413H114.984C115.597 14.5154 114.632 13.0065 113.172 13.0065Z" fill="#3A3B3C"/>
<path fill-rule="evenodd" clip-rule="evenodd" d="M45.2151 7.02235C45.5182 6.91752 45.8476 7.07499 45.9524 7.37676L46.4695 8.87291C46.4695 8.87291 44.2466 8.16453 43.0878 7.94127L45.2151 7.02235ZM52.48 11.0248C52.4747 11.0248 52.2462 10.8673 52.1243 10.8015L48.3907 8.89878C47.2332 8.34743 47.488 7.91451 47.0498 6.70742C46.9003 6.30082 46.6849 5.82842 46.391 5.35559C44.2598 4.345 38.2024 4.58142 37.6238 0.00131226C37.6238 0.00131226 35.364 1.4843 34.9522 4.20069C11.0735 2.3769 0.00311279 15.5523 0.00311279 15.5523C4.45031 13.7807 9.24798 12.9407 14.047 12.7179C4.92403 19.7385 2.05148 30.3154 2.05148 30.3154C2.05148 30.3154 9.44228 23.1374 20.5522 19.1349C17.6441 23.2426 15.9589 28.7539 16.648 35.9978C16.648 35.9978 22.3628 14.1877 49.4785 19.463C49.4785 19.463 50.4707 16.5628 53.0322 13.5969C53.1936 13.4131 53.2853 13.1376 53.3037 12.8227C53.3568 12.1139 53.0274 11.445 52.48 11.0248Z" fill="#3A3B3C"/>
</g>
<defs>
<clipPath id="clip0">
<rect width="193.461" height="36" fill="white"/>
</clipPath>
</defs>
</svg>
