<svg id="Слой_1" data-name="Слой 1" xmlns="http://www.w3.org/2000/svg" viewBox="0 0 204.93 29.63"><defs><style>.cls-1,.cls-5{fill:#fff;}.cls-1{opacity:0.5;}.cls-1,.cls-4{isolation:isolate;}.cls-2{fill:#2cd9ff;}.cls-3,.cls-4{opacity:0.25;}.cls-6{opacity:0.26;}.cls-7{opacity:0.26;}.cls-8{fill:#d03a94;}</style></defs><path class="cls-1" d="M136.85,5h1.56l1.7,1.7-1.7,1.7h-1.56l1.7-1.7Zm-1.63,1.7-1.7,1.7h1.56l1.7-1.7L135.08,5h-1.56Zm-3.33,0-1.7,1.7h1.56l1.7-1.7L131.75,5h-1.56Zm-3.33,0-1.7,1.7h1.56l1.7-1.7L128.42,5h-1.56Zm-3.33,0-1.7,1.7h1.56l1.7-1.7L125.09,5h-1.56Zm-3.33,0-1.7,1.7h1.56l1.7-1.7L121.76,5H120.2Zm-3.33,0-1.7,1.7h1.57l1.69-1.7L118.44,5h-1.57Zm-3.33,0-1.7,1.7h1.57l1.69-1.7L115.11,5h-1.57Zm-3.33,0-1.7,1.7h1.57l1.69-1.7L111.78,5h-1.57Zm-3.33,0-1.7,1.7h1.57l1.7-1.7L108.45,5h-1.57Z"/><path class="cls-2" d="M200.59,20.72l-4.76,4.76h4.35l4.75-4.76L200.18,16h-4.35Zm-9.31,0-4.76,4.76h4.35l4.76-4.76L190.87,16h-4.35Zm-9.38,0-4.76,4.76h4.35l4.76-4.76L181.49,16h-4.35Zm-9.38,0-4.75,4.76h4.35l4.75-4.76L172.12,16h-4.35Zm-9.31,0-4.75,4.76h4.35l4.75-4.76L162.81,16h-4.35Zm-9.37,0-4.76,4.76h4.35l4.76-4.76L153.43,16h-4.35Zm-9.38,0-4.76,4.76h4.35l4.76-4.76L144.05,16H139.7Z"/><g class="cls-3"><path class="cls-4" d="M11.35.48a.9.9,0,0,1,.88.88.9.9,0,0,1-.88.88H3.4A1.14,1.14,0,0,0,2.24,3.38V6.32h8.22a.9.9,0,0,1,.89.88.86.86,0,0,1-.83.89H2.24v5.23a.9.9,0,0,1-.88.88.9.9,0,0,1-.88-.88V3.47a3,3,0,0,1,3-3Z"/><path class="cls-4" d="M24.39.54a3,3,0,0,1,3,3v7.89a3,3,0,0,1-3,3H16.65a3,3,0,0,1-3-3v-8a3,3,0,0,1,3-3h7.74Zm-8.9,10.81a1.19,1.19,0,0,0,1.16,1.15h7.74a1.14,1.14,0,0,0,1.16-1.14h0V3.47a1.2,1.2,0,0,0-1.16-1.16H16.65a1.2,1.2,0,0,0-1.16,1.16Z"/><path class="cls-4" d="M42.33,3.47V6.25a3,3,0,0,1-2.92,3c.41.95,1.09,2.65,1.56,3.81a.57.57,0,0,1,.07.34,1,1,0,0,1-.54.81.57.57,0,0,1-.34.07.88.88,0,0,1-.82-.54l-1.76-4.5H31.46v4.15a.89.89,0,0,1-1,.79.87.87,0,0,1-.79-.79V3.47a3,3,0,0,1,3-3h6.8A3,3,0,0,1,42.33,3.47Zm-1.76,0a1.21,1.21,0,0,0-1.23-1.16H32.55a1.14,1.14,0,0,0-1.16,1.14v4h8a1.2,1.2,0,0,0,1.22-1.15V3.47Z"/><path class="cls-4" d="M55.72.54a.9.9,0,0,1,.88.89.9.9,0,0,1-.88.88H47.5a1.21,1.21,0,0,0-1.23,1.16V5.3A1.22,1.22,0,0,0,47.5,6.46h6.18a3,3,0,0,1,2.92,3V11.3a3,3,0,0,1-2.92,3H45.39a.89.89,0,0,1-.79-1,.87.87,0,0,1,.79-.79h8.22a1.19,1.19,0,0,0,1.16-1.15V9.51a1.14,1.14,0,0,0-1.15-1.15H47.43a3,3,0,0,1-3-3V3.53a3,3,0,0,1,3-3Z"/><path class="cls-4" d="M68.42.48a3,3,0,0,1,3,3h0V13.4a.88.88,0,0,1-1.76,0V8.15H60.81v5.24a.88.88,0,1,1-1.76,0h0V3.47a3,3,0,0,1,3-3ZM60.81,6.39h8.77V3.47a1.14,1.14,0,0,0-1.14-1.16H62a1.14,1.14,0,0,0-1.16,1.14v0Z"/><path class="cls-4" d="M85.82.48a.9.9,0,0,1,.88.88.9.9,0,0,1-.88.88H76.71A1.24,1.24,0,0,0,75.49,3.5v7.71a1.27,1.27,0,0,0,1.22,1.29h6.93a1.29,1.29,0,0,0,1.3-1.28h0V8.15H78.55a.88.88,0,1,1,0-1.76h7.27a.86.86,0,0,1,.88.84v4a3,3,0,0,1-2.94,3.06H76.71a3,3,0,0,1-3-3V3.6A3,3,0,0,1,76.65.54h9.17Z"/><path class="cls-4" d="M99.75,12.5a.89.89,0,0,1,.79,1,.87.87,0,0,1-.79.79H91.94a3,3,0,0,1-3-3V3.47a3,3,0,0,1,3-3h7.81a.9.9,0,0,1,.88.88.9.9,0,0,1-.88.88H91.94A1.19,1.19,0,0,0,90.78,3.4V6.32h8.83a.89.89,0,0,1,.19,1.77h-9v3.19a1.19,1.19,0,0,0,1.16,1.15h7.81Z"/></g><path class="cls-5" d="M10.87.07a.9.9,0,0,1,.89.88.9.9,0,0,1-.89.88H3A1.14,1.14,0,0,0,1.83,3v3h8.23a.9.9,0,0,1,.88.88.86.86,0,0,1-.83.89H1.77v5.23a.9.9,0,0,1-.89.88A.9.9,0,0,1,0,12.91V3A3,3,0,0,1,3,0h7.88Z"/><path class="cls-5" d="M24,.07a3,3,0,0,1,3,3V11a3,3,0,0,1-3,3H16.24a3,3,0,0,1-3-3V3a3,3,0,0,1,3-3H24Zm-8.91,10.8A1.19,1.19,0,0,0,16.24,12H24a1.14,1.14,0,0,0,1.15-1.15h0V3A1.19,1.19,0,0,0,24,1.83H16.24A1.2,1.2,0,0,0,15.08,3Z"/><path class="cls-5" d="M41.92,3V5.78a3,3,0,0,1-2.92,3c.41,1,1.09,2.65,1.57,3.8a.66.66,0,0,1,.06.34,1,1,0,0,1-.54.82.66.66,0,0,1-.34.06.88.88,0,0,1-.82-.54L37.17,8.77H31.05v4.14a.88.88,0,0,1-1.76,0h0V3a3,3,0,0,1,3-3h6.79A3,3,0,0,1,41.92,3ZM40.16,3a1.22,1.22,0,0,0-1.23-1.16H32.14A1.14,1.14,0,0,0,31,3h0V7h8a1.21,1.21,0,0,0,1.23-1.16V3Z"/><path class="cls-5" d="M55.31.07a.9.9,0,0,1,.88.88.9.9,0,0,1-.88.88H47.09A1.2,1.2,0,0,0,45.87,3V4.82A1.2,1.2,0,0,0,47.09,6h6.18a3,3,0,0,1,2.92,3v1.8a3,3,0,0,1-2.92,3H45A.9.9,0,1,1,45,12h8.2a1.2,1.2,0,0,0,1.16-1.16V9A1.15,1.15,0,0,0,53.2,7.88H47a3,3,0,0,1-3-3V3.06a3,3,0,0,1,3-3Z"/><path class="cls-5" d="M68,.07a3,3,0,0,1,3,3V13a.89.89,0,0,1-1,.79.87.87,0,0,1-.79-.79V7.75H60.41V13a.89.89,0,0,1-1,.79.87.87,0,0,1-.79-.79V3a3,3,0,0,1,3-3H68ZM60.34,5.91H69.1V3A1.16,1.16,0,0,0,68,1.83H61.49A1.14,1.14,0,0,0,60.34,3V5.91Z"/><path class="cls-5" d="M85.41.07A.9.9,0,0,1,86.3,1V1a.9.9,0,0,1-.89.88h-9.1a1.25,1.25,0,0,0-1.23,1.27V10.8a1.28,1.28,0,0,0,1.23,1.29h6.93a1.29,1.29,0,0,0,1.29-1.29h0V7.75H78.14a.89.89,0,0,1-.79-1A.87.87,0,0,1,78.14,6h7.27a.86.86,0,0,1,.89.83v4a3,3,0,0,1-2.94,3.06h-7a3,3,0,0,1-3.06-2.94V3.13A3,3,0,0,1,76.19.07h9.22Z"/><path class="cls-5" d="M99.34,12.09a.89.89,0,0,1,.79,1,.87.87,0,0,1-.79.79H91.53a3,3,0,0,1-3-3V3a3,3,0,0,1,3-3h7.81a.9.9,0,0,1,.88.88.9.9,0,0,1-.88.89H91.53a1.19,1.19,0,0,0-1.16,1.15V5.84h8.84a.89.89,0,0,1,.79,1,.87.87,0,0,1-.79.79H90.37V10.8A1.19,1.19,0,0,0,91.53,12h7.81Z"/><g class="cls-6"><path d="M109.88,21.82l-6.28-6a.94.94,0,0,1-.34-.68.92.92,0,0,1,.14-.4.58.58,0,0,1,.27-.34c.13-.07.27-.21.4-.21a1.32,1.32,0,0,1,.55-.07,1.69,1.69,0,0,1,1,.34l6,5.74,6-5.74a1.69,1.69,0,0,1,1-.34,1.29,1.29,0,0,1,.54.07,2.2,2.2,0,0,1,.41.21,1.26,1.26,0,0,1,.27.34.92.92,0,0,1,.14.4.94.94,0,0,1-.34.68l-6.29,6,6.35,6a.84.84,0,0,1,.28.67.91.91,0,0,1-.14.41,1.44,1.44,0,0,1-.27.34c-.14.07-.27.21-.41.21s-.34.06-.54.06a1.78,1.78,0,0,1-1-.34l-6-5.73-6.08,5.73a1.57,1.57,0,0,1-.95.34,1.52,1.52,0,0,1-.55-.06,2.43,2.43,0,0,1-.4-.21.61.61,0,0,1-.27-.34.91.91,0,0,1-.14-.41.86.86,0,0,1,.27-.67Z"/></g><g class="cls-7"><path d="M93,23.89,88.67,20a.94.94,0,0,1-.34-.68.9.9,0,0,1,.13-.41.71.71,0,0,1,.27-.34c.14-.07.28-.21.41-.21a1.52,1.52,0,0,1,.55-.06,1.67,1.67,0,0,1,1,.34l4,3.73,4-3.73a1.67,1.67,0,0,1,1-.34,1.52,1.52,0,0,1,.55.06,2.57,2.57,0,0,1,.41.21,1.75,1.75,0,0,1,.27.34,1,1,0,0,1,.13.41.94.94,0,0,1-.34.68l-4.28,3.94,4.35,4a.87.87,0,0,1,.27.68,1,1,0,0,1-.13.4,1.49,1.49,0,0,1-.27.34c-.14.07-.28.21-.41.21s-.34.07-.55.07a1.89,1.89,0,0,1-1-.34l-4-3.74-4.07,3.74a1.64,1.64,0,0,1-1,.34,1.32,1.32,0,0,1-.55-.07,2.57,2.57,0,0,1-.41-.21.67.67,0,0,1-.27-.34.9.9,0,0,1-.13-.4.84.84,0,0,1,.27-.68Z"/></g><path class="cls-8" d="M92.27,23.21,88,19.27a.94.94,0,0,1-.34-.68,1,1,0,0,1,.13-.41.71.71,0,0,1,.27-.34c.14-.07.28-.21.41-.21a1.52,1.52,0,0,1,.55-.06,1.67,1.67,0,0,1,1,.34l4,3.73,4-3.73a1.67,1.67,0,0,1,1-.34,1.52,1.52,0,0,1,.55.06,2.57,2.57,0,0,1,.41.21,1.75,1.75,0,0,1,.27.34.9.9,0,0,1,.13.41.94.94,0,0,1-.34.68L95.8,23.21l4.35,4a.84.84,0,0,1,.27.68.9.9,0,0,1-.13.4,1.49,1.49,0,0,1-.27.34c-.14.07-.28.21-.41.21s-.34.07-.55.07a1.89,1.89,0,0,1-1-.34l-4-3.74L90,28.58a1.64,1.64,0,0,1-.95.34,1.32,1.32,0,0,1-.55-.07,2.57,2.57,0,0,1-.41-.21.67.67,0,0,1-.27-.34,1,1,0,0,1-.13-.4.87.87,0,0,1,.27-.68Z"/><g class="cls-7"><path d="M127,23.89,122.71,20a1,1,0,0,1-.34-.68.91.91,0,0,1,.14-.41.66.66,0,0,1,.27-.34c.14-.07.27-.21.41-.21a1.46,1.46,0,0,1,.54-.06,1.62,1.62,0,0,1,1,.34l4,3.73,4-3.73a1.62,1.62,0,0,1,1-.34,1.46,1.46,0,0,1,.54.06,2.2,2.2,0,0,1,.41.21,1.44,1.44,0,0,1,.27.34.91.91,0,0,1,.14.41,1,1,0,0,1-.34.68l-4.28,3.94,4.35,4a.87.87,0,0,1,.27.68.92.92,0,0,1-.14.4,1.26,1.26,0,0,1-.27.34c-.14.07-.27.21-.41.21s-.34.07-.54.07a1.86,1.86,0,0,1-1-.34l-4-3.74-4.08,3.74a1.64,1.64,0,0,1-1,.34,1.27,1.27,0,0,1-.54-.07,2.2,2.2,0,0,1-.41-.21c-.14-.06-.2-.2-.27-.34a.92.92,0,0,1-.14-.4.87.87,0,0,1,.27-.68Z"/></g><path class="cls-8" d="M126.31,23.21,122,19.27a1,1,0,0,1-.34-.68.91.91,0,0,1,.14-.41.66.66,0,0,1,.27-.34c.14-.07.27-.21.41-.21a1.46,1.46,0,0,1,.54-.06,1.62,1.62,0,0,1,1,.34l4,3.73,4-3.73a1.62,1.62,0,0,1,1-.34,1.46,1.46,0,0,1,.54.06,2.2,2.2,0,0,1,.41.21,1.44,1.44,0,0,1,.27.34.91.91,0,0,1,.14.41,1,1,0,0,1-.34.68l-4.28,3.94,4.35,4a.87.87,0,0,1,.27.68.92.92,0,0,1-.14.4,1.26,1.26,0,0,1-.27.34c-.14.07-.27.21-.41.21s-.34.07-.54.07a1.86,1.86,0,0,1-1-.34l-4-3.74L124,28.58a1.64,1.64,0,0,1-1,.34,1.27,1.27,0,0,1-.54-.07,2.2,2.2,0,0,1-.41-.21c-.14-.06-.2-.2-.27-.34a.92.92,0,0,1-.14-.4.87.87,0,0,1,.27-.68Z"/><path class="cls-8" d="M109.32,21.21,103,15.27a1,1,0,0,1-.34-.68.91.91,0,0,1,.14-.41.66.66,0,0,1,.27-.34c.14-.07.27-.21.41-.21a1.46,1.46,0,0,1,.54-.06,1.62,1.62,0,0,1,1,.34l6,5.73,6-5.73a1.62,1.62,0,0,1,1-.34,1.46,1.46,0,0,1,.54.06,2.2,2.2,0,0,1,.41.21,1.44,1.44,0,0,1,.27.34.91.91,0,0,1,.14.41,1,1,0,0,1-.34.68l-6.28,5.94,6.35,6a.87.87,0,0,1,.27.68.92.92,0,0,1-.14.4,1.26,1.26,0,0,1-.27.34c-.14.07-.27.21-.41.21s-.34.07-.54.07a1.86,1.86,0,0,1-1-.34l-6-5.74L105,28.58a1.64,1.64,0,0,1-1,.34,1.27,1.27,0,0,1-.54-.07,2.2,2.2,0,0,1-.41-.21c-.14-.06-.2-.2-.27-.34a.92.92,0,0,1-.14-.4.87.87,0,0,1,.27-.68Z"/></svg>